# xmcd CD database file
#
# Track frame offsets:
#	150
#	18470
#	42347
#	60640
#
# Disc length: 1124 seconds
#
# Revision: 0
# Processed by: cddbd v1.5.1PL2 Copyright (c) Steve Scherf et al.
# Submitted via: CDex 1.60beta1
#
DISCID=2d046204
DTITLE=AciD FLavoR - Higher&higher
DYEAR=2006
DGENRE=J-pop
TTITLE0=Higher&higher
TTITLE1=SAKURA
TTITLE2=Higher&higher(カラオケ)
TTITLE3=SAKURA(カラオケ)
EXTD=YEAR: 2006/02/08
EXTT0=
EXTT1=
EXTT2=
EXTT3=
PLAYORDER=
